<svg xmlns="http://www.w3.org/2000/svg" xmlns:xlink="http://www.w3.org/1999/xlink" width="500" zoomAndPan="magnify" viewBox="0 0 375 374.999991" height="500" preserveAspectRatio="xMidYMid meet" version="1.0"><defs><g/><clipPath id="1421c56189"><path d="M 40.007812 136.8125 L 106.757812 136.8125 L 106.757812 267.3125 L 40.007812 267.3125 Z M 40.007812 136.8125 " clip-rule="nonzero"/></clipPath><clipPath id="dcdbd96954"><path d="M 74 170 L 106.757812 170 L 106.757812 234 L 74 234 Z M 74 170 " clip-rule="nonzero"/></clipPath><clipPath id="f0df8040b6"><path d="M 102 132 L 127 132 L 127 284 L 102 284 Z M 102 132 " clip-rule="nonzero"/></clipPath><clipPath id="51ba86ac9f"><path d="M 0.00390625 176.027344 L 129.402344 46.625 L 243.957031 161.175781 L 114.554688 290.578125 Z M 0.00390625 176.027344 " clip-rule="nonzero"/></clipPath><clipPath id="e150af7d74"><path d="M 0.00390625 176.027344 L 129.402344 46.625 L 243.957031 161.175781 L 114.554688 290.578125 Z M 0.00390625 176.027344 " clip-rule="nonzero"/></clipPath><clipPath id="8e3523ebbb"><path d="M 0.00390625 176.027344 L 129.402344 46.625 L 243.957031 161.175781 L 114.554688 290.578125 Z M 0.00390625 176.027344 " clip-rule="nonzero"/></clipPath><clipPath id="9be5b28c93"><path d="M 59 86 L 171 86 L 171 129 L 59 129 Z M 59 86 " clip-rule="nonzero"/></clipPath><clipPath id="1795949dc6"><path d="M 0.00390625 176.027344 L 129.402344 46.625 L 243.957031 161.175781 L 114.554688 290.578125 Z M 0.00390625 176.027344 " clip-rule="nonzero"/></clipPath><clipPath id="8f72658d20"><path d="M 0.00390625 176.027344 L 129.402344 46.625 L 243.957031 161.175781 L 114.554688 290.578125 Z M 0.00390625 176.027344 " clip-rule="nonzero"/></clipPath><clipPath id="c6b01b1a81"><path d="M 0.00390625 176.027344 L 129.402344 46.625 L 243.957031 161.175781 L 114.554688 290.578125 Z M 0.00390625 176.027344 " clip-rule="nonzero"/></clipPath></defs><g clip-path="url(#1421c56189)"><path fill="#f6a00e" d="M 164.082031 186.898438 L 155.359375 184.714844 L 152.964844 178.929688 L 157.59375 171.214844 C 157.835938 170.8125 158.046875 170.390625 158.21875 169.953125 C 158.390625 169.515625 158.527344 169.0625 158.625 168.601562 C 158.722656 168.140625 158.78125 167.675781 158.800781 167.207031 C 158.820312 166.734375 158.804688 166.265625 158.746094 165.796875 C 158.6875 165.328125 158.59375 164.871094 158.457031 164.417969 C 158.324219 163.964844 158.152344 163.527344 157.945312 163.105469 C 157.738281 162.679688 157.5 162.277344 157.226562 161.894531 C 156.953125 161.511719 156.648438 161.152344 156.3125 160.820312 L 146.527344 151.035156 C 146.195312 150.703125 145.835938 150.398438 145.453125 150.121094 C 145.070312 149.847656 144.667969 149.609375 144.242188 149.402344 C 143.820312 149.195312 143.382812 149.023438 142.929688 148.890625 C 142.480469 148.753906 142.019531 148.660156 141.550781 148.601562 C 141.082031 148.542969 140.613281 148.523438 140.140625 148.546875 C 139.671875 148.566406 139.207031 148.625 138.746094 148.722656 C 138.285156 148.820312 137.832031 148.957031 137.394531 149.132812 C 136.957031 149.304688 136.535156 149.511719 136.132812 149.753906 L 128.417969 154.382812 L 122.632812 151.984375 L 120.453125 143.257812 C 120.339844 142.800781 120.1875 142.355469 120 141.921875 C 119.8125 141.492188 119.589844 141.078125 119.332031 140.679688 C 119.074219 140.285156 118.785156 139.914062 118.464844 139.566406 C 118.148438 139.21875 117.800781 138.902344 117.429688 138.613281 C 117.058594 138.320312 116.664062 138.0625 116.25 137.839844 C 115.835938 137.613281 115.40625 137.425781 114.960938 137.273438 C 114.515625 137.121094 114.058594 137.003906 113.59375 136.925781 C 113.128906 136.851562 112.660156 136.8125 112.1875 136.8125 L 98.355469 136.8125 C 97.882812 136.8125 97.414062 136.851562 96.949219 136.929688 C 96.484375 137.003906 96.03125 137.121094 95.582031 137.273438 C 95.136719 137.425781 94.707031 137.617188 94.292969 137.839844 C 93.878906 138.066406 93.484375 138.324219 93.113281 138.613281 C 92.742188 138.902344 92.398438 139.222656 92.078125 139.570312 C 91.757812 139.917969 91.472656 140.289062 91.214844 140.683594 C 90.957031 141.078125 90.734375 141.492188 90.546875 141.925781 C 90.359375 142.359375 90.207031 142.800781 90.09375 143.261719 L 87.914062 151.984375 L 82.128906 154.382812 L 74.417969 149.753906 C 74.015625 149.511719 73.59375 149.304688 73.15625 149.132812 C 72.714844 148.960938 72.265625 148.824219 71.804688 148.726562 C 71.34375 148.628906 70.878906 148.570312 70.40625 148.550781 C 69.9375 148.527344 69.464844 148.546875 69 148.605469 C 68.53125 148.664062 68.070312 148.757812 67.617188 148.890625 C 67.167969 149.027344 66.726562 149.195312 66.304688 149.402344 C 65.878906 149.609375 65.476562 149.851562 65.09375 150.125 C 64.710938 150.398438 64.351562 150.703125 64.015625 151.035156 L 54.230469 160.820312 C 53.898438 161.152344 53.59375 161.511719 53.320312 161.894531 C 53.042969 162.277344 52.804688 162.683594 52.597656 163.105469 C 52.390625 163.527344 52.21875 163.96875 52.085938 164.417969 C 51.953125 164.871094 51.855469 165.332031 51.796875 165.796875 C 51.738281 166.265625 51.722656 166.734375 51.742188 167.207031 C 51.761719 167.679688 51.820312 168.144531 51.917969 168.605469 C 52.015625 169.066406 52.152344 169.515625 52.324219 169.953125 C 52.496094 170.394531 52.707031 170.816406 52.949219 171.21875 L 57.574219 178.929688 L 55.183594 184.714844 L 46.460938 186.898438 C 46.003906 187.011719 45.558594 187.160156 45.125 187.347656 C 44.691406 187.539062 44.277344 187.757812 43.882812 188.015625 C 43.488281 188.273438 43.117188 188.558594 42.769531 188.878906 C 42.421875 189.199219 42.101562 189.542969 41.8125 189.914062 C 41.519531 190.285156 41.265625 190.679688 41.039062 191.09375 C 40.8125 191.507812 40.625 191.9375 40.472656 192.382812 C 40.320312 192.828125 40.203125 193.285156 40.125 193.75 C 40.046875 194.214844 40.007812 194.683594 40.007812 195.15625 L 40.007812 208.992188 C 40.007812 209.464844 40.046875 209.933594 40.125 210.398438 C 40.203125 210.863281 40.320312 211.316406 40.472656 211.765625 C 40.625 212.210938 40.8125 212.640625 41.039062 213.054688 C 41.265625 213.46875 41.519531 213.863281 41.8125 214.234375 C 42.101562 214.605469 42.421875 214.949219 42.769531 215.269531 C 43.117188 215.585938 43.488281 215.875 43.882812 216.132812 C 44.277344 216.386719 44.691406 216.609375 45.125 216.796875 C 45.558594 216.984375 46.003906 217.136719 46.460938 217.25 L 55.183594 219.429688 L 57.578125 225.214844 L 52.949219 232.929688 C 52.707031 233.335938 52.496094 233.757812 52.324219 234.195312 C 52.152344 234.632812 52.015625 235.082031 51.917969 235.542969 C 51.820312 236.003906 51.761719 236.472656 51.742188 236.941406 C 51.722656 237.414062 51.738281 237.882812 51.796875 238.351562 C 51.855469 238.816406 51.949219 239.277344 52.085938 239.730469 C 52.21875 240.179688 52.390625 240.617188 52.597656 241.042969 C 52.804688 241.464844 53.042969 241.871094 53.316406 242.253906 C 53.589844 242.636719 53.894531 242.996094 54.230469 243.328125 L 64.015625 253.113281 C 64.347656 253.445312 64.707031 253.75 65.089844 254.027344 C 65.472656 254.300781 65.875 254.542969 66.300781 254.75 C 66.722656 254.957031 67.160156 255.125 67.613281 255.261719 C 68.066406 255.394531 68.523438 255.492188 68.992188 255.550781 C 69.460938 255.605469 69.929688 255.625 70.402344 255.605469 C 70.871094 255.582031 71.339844 255.523438 71.800781 255.425781 C 72.261719 255.328125 72.710938 255.191406 73.148438 255.019531 C 73.585938 254.84375 74.007812 254.636719 74.414062 254.390625 L 82.125 249.765625 L 87.914062 252.160156 L 90.089844 260.890625 C 90.203125 261.347656 90.355469 261.792969 90.542969 262.226562 C 90.734375 262.65625 90.957031 263.070312 91.214844 263.464844 C 91.46875 263.859375 91.757812 264.234375 92.078125 264.578125 C 92.394531 264.925781 92.742188 265.246094 93.113281 265.535156 C 93.484375 265.824219 93.878906 266.082031 94.292969 266.308594 C 94.707031 266.53125 95.136719 266.722656 95.582031 266.875 C 96.03125 267.027344 96.484375 267.144531 96.949219 267.21875 C 97.414062 267.296875 97.882812 267.335938 98.355469 267.335938 L 112.1875 267.335938 C 112.660156 267.335938 113.128906 267.296875 113.59375 267.21875 C 114.058594 267.140625 114.511719 267.027344 114.960938 266.875 C 115.40625 266.71875 115.835938 266.53125 116.25 266.304688 C 116.664062 266.082031 117.058594 265.824219 117.429688 265.535156 C 117.800781 265.242188 118.144531 264.925781 118.464844 264.578125 C 118.785156 264.230469 119.070312 263.859375 119.328125 263.464844 C 119.585938 263.066406 119.808594 262.65625 119.996094 262.222656 C 120.183594 261.789062 120.335938 261.34375 120.449219 260.886719 L 122.628906 252.160156 L 128.414062 249.765625 L 136.125 254.390625 C 136.527344 254.636719 136.949219 254.84375 137.386719 255.019531 C 137.824219 255.191406 138.277344 255.328125 138.738281 255.425781 C 139.199219 255.527344 139.664062 255.585938 140.136719 255.605469 C 140.609375 255.628906 141.078125 255.609375 141.546875 255.550781 C 142.015625 255.492188 142.472656 255.398438 142.925781 255.261719 C 143.378906 255.128906 143.816406 254.957031 144.242188 254.75 C 144.664062 254.542969 145.066406 254.300781 145.453125 254.027344 C 145.835938 253.75 146.191406 253.445312 146.527344 253.113281 L 156.3125 243.332031 C 156.644531 242.996094 156.949219 242.640625 157.222656 242.253906 C 157.5 241.871094 157.738281 241.46875 157.945312 241.042969 C 158.152344 240.621094 158.324219 240.183594 158.457031 239.730469 C 158.59375 239.277344 158.6875 238.820312 158.746094 238.351562 C 158.804688 237.882812 158.824219 237.414062 158.800781 236.941406 C 158.78125 236.46875 158.722656 236.003906 158.625 235.542969 C 158.527344 235.082031 158.390625 234.632812 158.21875 234.191406 C 158.046875 233.753906 157.835938 233.332031 157.59375 232.929688 L 152.96875 225.214844 L 155.359375 219.429688 L 164.085938 217.25 C 164.542969 217.136719 164.988281 216.984375 165.417969 216.796875 C 165.851562 216.609375 166.265625 216.386719 166.660156 216.132812 C 167.054688 215.875 167.425781 215.585938 167.773438 215.269531 C 168.121094 214.949219 168.441406 214.605469 168.730469 214.234375 C 169.023438 213.863281 169.28125 213.46875 169.503906 213.054688 C 169.730469 212.640625 169.917969 212.210938 170.070312 211.761719 C 170.226562 211.316406 170.339844 210.863281 170.417969 210.398438 C 170.496094 209.933594 170.535156 209.464844 170.53125 208.992188 L 170.53125 195.15625 C 170.535156 194.683594 170.496094 194.214844 170.417969 193.75 C 170.339844 193.285156 170.222656 192.828125 170.070312 192.382812 C 169.917969 191.9375 169.730469 191.507812 169.503906 191.09375 C 169.277344 190.679688 169.023438 190.285156 168.730469 189.914062 C 168.441406 189.542969 168.121094 189.199219 167.773438 188.878906 C 167.425781 188.558594 167.054688 188.273438 166.660156 188.015625 C 166.265625 187.757812 165.851562 187.539062 165.417969 187.347656 C 164.984375 187.160156 164.539062 187.011719 164.082031 186.898438 Z M 164.859375 208.992188 C 164.859375 209.308594 164.808594 209.617188 164.703125 209.917969 C 164.601562 210.214844 164.453125 210.492188 164.257812 210.742188 C 164.0625 210.988281 163.832031 211.199219 163.566406 211.375 C 163.300781 211.546875 163.015625 211.671875 162.707031 211.746094 L 152.601562 214.273438 C 152.164062 214.382812 151.777344 214.582031 151.433594 214.878906 C 151.09375 215.171875 150.839844 215.523438 150.667969 215.941406 L 147.175781 224.367188 C 147.003906 224.78125 146.933594 225.214844 146.96875 225.664062 C 147 226.109375 147.132812 226.527344 147.363281 226.914062 L 152.726562 235.847656 C 152.890625 236.117188 153.003906 236.410156 153.070312 236.71875 C 153.136719 237.027344 153.152344 237.339844 153.113281 237.65625 C 153.074219 237.96875 152.984375 238.269531 152.847656 238.554688 C 152.707031 238.839844 152.527344 239.09375 152.300781 239.316406 L 142.515625 249.101562 C 142.289062 249.324219 142.035156 249.507812 141.753906 249.644531 C 141.46875 249.785156 141.167969 249.875 140.855469 249.914062 C 140.539062 249.953125 140.226562 249.9375 139.917969 249.871094 C 139.605469 249.804688 139.316406 249.691406 139.046875 249.527344 L 130.105469 244.164062 C 129.71875 243.933594 129.304688 243.800781 128.855469 243.765625 C 128.40625 243.734375 127.976562 243.804688 127.5625 243.976562 L 119.136719 247.464844 C 118.722656 247.636719 118.367188 247.894531 118.074219 248.234375 C 117.78125 248.574219 117.578125 248.964844 117.46875 249.398438 L 114.941406 259.511719 C 114.867188 259.816406 114.742188 260.105469 114.570312 260.371094 C 114.398438 260.636719 114.1875 260.867188 113.9375 261.0625 C 113.6875 261.253906 113.410156 261.40625 113.113281 261.507812 C 112.8125 261.609375 112.503906 261.660156 112.1875 261.660156 L 98.355469 261.660156 C 98.039062 261.660156 97.730469 261.609375 97.429688 261.507812 C 97.132812 261.40625 96.859375 261.257812 96.609375 261.0625 C 96.359375 260.867188 96.148438 260.636719 95.972656 260.371094 C 95.800781 260.105469 95.675781 259.820312 95.601562 259.511719 L 93.074219 249.398438 C 92.964844 248.964844 92.761719 248.574219 92.46875 248.234375 C 92.175781 247.894531 91.820312 247.636719 91.40625 247.464844 L 82.980469 243.976562 C 82.632812 243.832031 82.273438 243.761719 81.894531 243.761719 C 81.371094 243.757812 80.886719 243.894531 80.4375 244.164062 L 71.492188 249.527344 C 71.222656 249.691406 70.933594 249.804688 70.625 249.871094 C 70.316406 249.9375 70.003906 249.949219 69.6875 249.910156 C 69.375 249.875 69.078125 249.785156 68.792969 249.644531 C 68.507812 249.507812 68.253906 249.324219 68.03125 249.101562 L 58.242188 239.316406 C 58.019531 239.089844 57.835938 238.835938 57.699219 238.554688 C 57.558594 238.269531 57.472656 237.96875 57.433594 237.65625 C 57.394531 237.339844 57.40625 237.03125 57.472656 236.71875 C 57.539062 236.410156 57.652344 236.121094 57.816406 235.847656 L 63.179688 226.914062 C 63.410156 226.527344 63.542969 226.109375 63.578125 225.660156 C 63.609375 225.214844 63.539062 224.78125 63.367188 224.367188 L 59.878906 215.941406 C 59.707031 215.523438 59.449219 215.171875 59.109375 214.875 C 58.769531 214.582031 58.378906 214.382812 57.941406 214.273438 L 47.832031 211.746094 C 47.527344 211.671875 47.242188 211.546875 46.976562 211.375 C 46.710938 211.199219 46.480469 210.988281 46.285156 210.742188 C 46.089844 210.492188 45.941406 210.214844 45.839844 209.917969 C 45.734375 209.617188 45.683594 209.308594 45.683594 208.992188 L 45.683594 195.15625 C 45.683594 194.839844 45.734375 194.53125 45.839844 194.230469 C 45.941406 193.929688 46.089844 193.65625 46.285156 193.40625 C 46.480469 193.15625 46.710938 192.945312 46.976562 192.773438 C 47.242188 192.601562 47.527344 192.476562 47.835938 192.398438 L 57.941406 189.871094 C 58.378906 189.765625 58.765625 189.5625 59.109375 189.269531 C 59.449219 188.976562 59.703125 188.621094 59.875 188.207031 L 63.367188 179.78125 C 63.539062 179.367188 63.609375 178.933594 63.574219 178.484375 C 63.542969 178.039062 63.410156 177.621094 63.179688 177.234375 L 57.816406 168.300781 C 57.652344 168.03125 57.539062 167.738281 57.472656 167.429688 C 57.40625 167.121094 57.394531 166.808594 57.433594 166.492188 C 57.46875 166.179688 57.558594 165.878906 57.699219 165.59375 C 57.835938 165.308594 58.019531 165.054688 58.242188 164.832031 L 68.03125 155.046875 C 68.253906 154.824219 68.507812 154.640625 68.792969 154.503906 C 69.078125 154.363281 69.375 154.273438 69.691406 154.234375 C 70.003906 154.195312 70.316406 154.210938 70.628906 154.277344 C 70.9375 154.34375 71.226562 154.457031 71.5 154.621094 L 80.4375 159.984375 C 80.824219 160.214844 81.238281 160.347656 81.6875 160.378906 C 82.136719 160.414062 82.566406 160.34375 82.980469 160.171875 L 91.40625 156.683594 C 91.820312 156.511719 92.175781 156.253906 92.46875 155.914062 C 92.761719 155.574219 92.964844 155.183594 93.074219 154.75 L 95.601562 144.636719 C 95.675781 144.328125 95.800781 144.042969 95.972656 143.777344 C 96.144531 143.511719 96.355469 143.28125 96.605469 143.085938 C 96.855469 142.890625 97.132812 142.742188 97.429688 142.640625 C 97.730469 142.539062 98.039062 142.488281 98.355469 142.488281 L 112.1875 142.488281 C 112.503906 142.488281 112.8125 142.539062 113.113281 142.640625 C 113.410156 142.742188 113.6875 142.890625 113.933594 143.085938 C 114.183594 143.28125 114.394531 143.511719 114.570312 143.777344 C 114.742188 144.042969 114.867188 144.328125 114.941406 144.632812 L 117.46875 154.75 C 117.578125 155.183594 117.78125 155.574219 118.074219 155.914062 C 118.367188 156.253906 118.722656 156.511719 119.136719 156.683594 L 127.5625 160.171875 C 127.976562 160.34375 128.40625 160.414062 128.855469 160.378906 C 129.304688 160.347656 129.71875 160.214844 130.105469 159.984375 L 139.050781 154.621094 C 139.320312 154.457031 139.609375 154.34375 139.917969 154.277344 C 140.226562 154.210938 140.539062 154.199219 140.855469 154.238281 C 141.167969 154.277344 141.464844 154.363281 141.75 154.503906 C 142.035156 154.640625 142.289062 154.824219 142.511719 155.046875 L 152.296875 164.832031 C 152.523438 165.054688 152.703125 165.308594 152.839844 165.59375 C 152.980469 165.878906 153.070312 166.175781 153.109375 166.492188 C 153.144531 166.804688 153.132812 167.117188 153.066406 167.425781 C 153 167.738281 152.886719 168.027344 152.726562 168.296875 L 147.363281 177.234375 C 147.132812 177.621094 147 178.039062 146.964844 178.484375 C 146.933594 178.933594 147.003906 179.367188 147.175781 179.78125 L 150.664062 188.207031 C 150.835938 188.625 151.09375 188.976562 151.433594 189.269531 C 151.773438 189.5625 152.164062 189.765625 152.601562 189.871094 L 162.710938 192.398438 C 163.015625 192.476562 163.300781 192.601562 163.566406 192.773438 C 163.832031 192.945312 164.0625 193.15625 164.257812 193.40625 C 164.453125 193.65625 164.601562 193.929688 164.707031 194.230469 C 164.808594 194.53125 164.859375 194.835938 164.859375 195.15625 Z M 164.859375 208.992188 " fill-opacity="1" fill-rule="nonzero"/></g><g clip-path="url(#dcdbd96954)"><path fill="#f6a00e" d="M 105.269531 170.863281 C 104.25 170.863281 103.230469 170.910156 102.210938 171.011719 C 101.195312 171.113281 100.183594 171.261719 99.183594 171.460938 C 98.179688 171.660156 97.1875 171.910156 96.210938 172.207031 C 95.234375 172.503906 94.273438 172.847656 93.328125 173.238281 C 92.382812 173.628906 91.460938 174.066406 90.558594 174.546875 C 89.65625 175.027344 88.78125 175.554688 87.929688 176.121094 C 87.082031 176.691406 86.261719 177.296875 85.472656 177.945312 C 84.679688 178.59375 83.925781 179.28125 83.199219 180.003906 C 82.476562 180.726562 81.792969 181.484375 81.144531 182.273438 C 80.496094 183.0625 79.886719 183.882812 79.320312 184.734375 C 78.75 185.582031 78.226562 186.457031 77.746094 187.359375 C 77.261719 188.261719 76.828125 189.183594 76.433594 190.128906 C 76.042969 191.074219 75.699219 192.035156 75.402344 193.011719 C 75.105469 193.992188 74.859375 194.980469 74.660156 195.984375 C 74.460938 196.988281 74.308594 197.996094 74.210938 199.015625 C 74.109375 200.03125 74.058594 201.050781 74.058594 202.074219 C 74.058594 203.097656 74.109375 204.117188 74.210938 205.132812 C 74.308594 206.152344 74.460938 207.160156 74.660156 208.164062 C 74.859375 209.164062 75.105469 210.15625 75.402344 211.132812 C 75.699219 212.113281 76.042969 213.074219 76.433594 214.019531 C 76.828125 214.960938 77.261719 215.886719 77.746094 216.785156 C 78.226562 217.6875 78.75 218.5625 79.320312 219.414062 C 79.886719 220.265625 80.496094 221.085938 81.144531 221.875 C 81.792969 222.664062 82.476562 223.421875 83.199219 224.144531 C 83.925781 224.867188 84.679688 225.550781 85.472656 226.199219 C 86.261719 226.847656 87.082031 227.457031 87.929688 228.027344 C 88.78125 228.59375 89.65625 229.117188 90.558594 229.601562 C 91.460938 230.082031 92.382812 230.519531 93.328125 230.910156 C 94.273438 231.300781 95.234375 231.644531 96.210938 231.941406 C 97.1875 232.238281 98.179688 232.488281 99.183594 232.6875 C 100.183594 232.886719 101.195312 233.035156 102.210938 233.136719 C 103.230469 233.234375 104.25 233.285156 105.269531 233.285156 C 106.292969 233.285156 107.3125 233.234375 108.332031 233.136719 C 109.347656 233.035156 110.359375 232.886719 111.359375 232.6875 C 112.363281 232.488281 113.355469 232.238281 114.332031 231.941406 C 115.308594 231.644531 116.269531 231.300781 117.214844 230.910156 C 118.160156 230.519531 119.082031 230.082031 119.984375 229.601562 C 120.886719 229.117188 121.761719 228.59375 122.613281 228.027344 C 123.460938 227.457031 124.28125 226.847656 125.070312 226.199219 C 125.863281 225.550781 126.617188 224.867188 127.339844 224.144531 C 128.066406 223.421875 128.75 222.664062 129.398438 221.875 C 130.046875 221.085938 130.65625 220.265625 131.222656 219.414062 C 131.792969 218.5625 132.316406 217.6875 132.796875 216.785156 C 133.28125 215.886719 133.714844 214.960938 134.109375 214.019531 C 134.5 213.074219 134.84375 212.113281 135.140625 211.132812 C 135.4375 210.15625 135.683594 209.164062 135.882812 208.164062 C 136.082031 207.160156 136.234375 206.152344 136.332031 205.132812 C 136.433594 204.117188 136.484375 203.097656 136.484375 202.074219 C 136.480469 201.050781 136.429688 200.03125 136.328125 199.015625 C 136.230469 198 136.078125 196.988281 135.878906 195.988281 C 135.675781 194.984375 135.429688 193.996094 135.132812 193.015625 C 134.832031 192.039062 134.488281 191.078125 134.097656 190.136719 C 133.707031 189.191406 133.269531 188.269531 132.785156 187.367188 C 132.304688 186.46875 131.78125 185.589844 131.210938 184.742188 C 130.644531 183.890625 130.035156 183.074219 129.386719 182.28125 C 128.738281 181.492188 128.054688 180.738281 127.332031 180.015625 C 126.609375 179.292969 125.851562 178.605469 125.0625 177.957031 C 124.273438 177.308594 123.453125 176.703125 122.601562 176.132812 C 121.753906 175.566406 120.878906 175.039062 119.976562 174.558594 C 119.078125 174.074219 118.152344 173.640625 117.210938 173.246094 C 116.265625 172.855469 115.304688 172.511719 114.328125 172.214844 C 113.351562 171.917969 112.359375 171.667969 111.359375 171.46875 C 110.355469 171.265625 109.347656 171.117188 108.328125 171.015625 C 107.3125 170.914062 106.292969 170.863281 105.269531 170.863281 Z M 105.269531 227.609375 C 104.433594 227.609375 103.601562 227.570312 102.769531 227.488281 C 101.9375 227.40625 101.109375 227.285156 100.289062 227.121094 C 99.46875 226.957031 98.660156 226.753906 97.859375 226.511719 C 97.058594 226.269531 96.273438 225.988281 95.5 225.667969 C 94.726562 225.347656 93.972656 224.988281 93.234375 224.59375 C 92.496094 224.203125 91.777344 223.773438 91.082031 223.308594 C 90.386719 222.84375 89.71875 222.34375 89.070312 221.8125 C 88.425781 221.285156 87.804688 220.722656 87.214844 220.132812 C 86.621094 219.539062 86.0625 218.921875 85.53125 218.273438 C 85 217.628906 84.503906 216.957031 84.039062 216.261719 C 83.574219 215.566406 83.144531 214.847656 82.75 214.113281 C 82.355469 213.375 82 212.617188 81.679688 211.847656 C 81.359375 211.074219 81.078125 210.289062 80.832031 209.488281 C 80.589844 208.6875 80.386719 207.875 80.226562 207.054688 C 80.0625 206.234375 79.9375 205.410156 79.855469 204.578125 C 79.773438 203.746094 79.734375 202.910156 79.734375 202.074219 C 79.734375 201.238281 79.773438 200.402344 79.855469 199.570312 C 79.9375 198.738281 80.0625 197.910156 80.226562 197.089844 C 80.386719 196.269531 80.589844 195.460938 80.832031 194.660156 C 81.078125 193.859375 81.359375 193.074219 81.679688 192.300781 C 82 191.527344 82.355469 190.773438 82.75 190.035156 C 83.144531 189.296875 83.574219 188.582031 84.039062 187.886719 C 84.503906 187.191406 85 186.519531 85.53125 185.875 C 86.0625 185.226562 86.621094 184.609375 87.214844 184.015625 C 87.804688 183.425781 88.425781 182.863281 89.070312 182.332031 C 89.71875 181.800781 90.386719 181.304688 91.082031 180.839844 C 91.777344 180.375 92.496094 179.945312 93.234375 179.550781 C 93.972656 179.15625 94.726562 178.800781 95.5 178.480469 C 96.273438 178.160156 97.058594 177.878906 97.859375 177.636719 C 98.660156 177.394531 99.46875 177.191406 100.289062 177.027344 C 101.109375 176.863281 101.9375 176.742188 102.769531 176.660156 C 103.601562 176.578125 104.433594 176.535156 105.269531 176.535156 C 106.109375 176.535156 106.941406 176.578125 107.773438 176.660156 C 108.605469 176.742188 109.433594 176.863281 110.253906 177.027344 C 111.074219 177.191406 111.882812 177.394531 112.683594 177.636719 C 113.484375 177.878906 114.269531 178.160156 115.042969 178.480469 C 115.816406 178.800781 116.570312 179.15625 117.308594 179.550781 C 118.046875 179.945312 118.765625 180.375 119.460938 180.839844 C 120.15625 181.304688 120.824219 181.800781 121.472656 182.332031 C 122.117188 182.863281 122.738281 183.425781 123.328125 184.015625 C 123.921875 184.609375 124.480469 185.226562 125.011719 185.875 C 125.542969 186.519531 126.039062 187.191406 126.503906 187.886719 C 126.96875 188.582031 127.398438 189.296875 127.792969 190.035156 C 128.1875 190.773438 128.542969 191.527344 128.863281 192.300781 C 129.183594 193.074219 129.464844 193.859375 129.710938 194.660156 C 129.953125 195.460938 130.15625 196.269531 130.316406 197.089844 C 130.480469 197.910156 130.605469 198.738281 130.6875 199.570312 C 130.769531 200.402344 130.808594 201.238281 130.808594 202.074219 C 130.808594 202.910156 130.765625 203.742188 130.683594 204.574219 C 130.601562 205.40625 130.476562 206.234375 130.3125 207.054688 C 130.148438 207.875 129.945312 208.683594 129.703125 209.484375 C 129.460938 210.285156 129.175781 211.070312 128.855469 211.84375 C 128.535156 212.613281 128.179688 213.367188 127.785156 214.105469 C 127.390625 214.84375 126.960938 215.558594 126.496094 216.253906 C 126.03125 216.949219 125.535156 217.621094 125.003906 218.265625 C 124.472656 218.914062 123.910156 219.53125 123.320312 220.121094 C 122.730469 220.714844 122.109375 221.273438 121.464844 221.804688 C 120.816406 222.335938 120.148438 222.832031 119.453125 223.296875 C 118.757812 223.761719 118.042969 224.191406 117.304688 224.585938 C 116.566406 224.980469 115.8125 225.339844 115.039062 225.660156 C 114.265625 225.980469 113.480469 226.261719 112.679688 226.503906 C 111.882812 226.75 111.070312 226.953125 110.25 227.117188 C 109.433594 227.28125 108.605469 227.402344 107.773438 227.484375 C 106.941406 227.566406 106.109375 227.609375 105.269531 227.609375 Z M 105.269531 227.609375 " fill-opacity="1" fill-rule="nonzero"/></g><g clip-path="url(#f0df8040b6)"><g clip-path="url(#51ba86ac9f)"><g clip-path="url(#e150af7d74)"><g clip-path="url(#8e3523ebbb)"><path fill="#000000" d="M 122.871094 133.40625 L 122.84375 181.640625 C 122.847656 185.132812 123.492188 188.496094 124.78125 191.738281 L 124.992188 192.242188 C 126.277344 195.488281 126.921875 198.855469 126.921875 202.347656 L 126.898438 271.535156 C 126.894531 272.335938 126.816406 273.132812 126.660156 273.921875 C 126.5 274.707031 126.269531 275.472656 125.960938 276.214844 C 125.652344 276.957031 125.277344 277.660156 124.828125 278.328125 C 124.382812 278.996094 123.875 279.613281 123.308594 280.183594 C 122.738281 280.75 122.121094 281.257812 121.453125 281.703125 C 120.785156 282.148438 120.082031 282.527344 119.339844 282.835938 C 118.597656 283.144531 117.832031 283.375 117.046875 283.53125 C 116.257812 283.691406 115.464844 283.769531 114.660156 283.769531 C 113.859375 283.769531 113.0625 283.691406 112.277344 283.535156 C 111.488281 283.378906 110.726562 283.148438 109.984375 282.839844 C 109.242188 282.535156 108.539062 282.160156 107.871094 281.714844 C 107.207031 281.265625 106.589844 280.761719 106.019531 280.195312 C 105.453125 279.625 104.949219 279.011719 104.503906 278.34375 C 104.054688 277.675781 103.679688 276.972656 103.375 276.230469 C 103.066406 275.488281 102.835938 274.726562 102.679688 273.9375 C 102.523438 273.152344 102.445312 272.355469 102.445312 271.554688 L 102.480469 202.523438 C 102.46875 198.925781 103.136719 195.464844 104.492188 192.132812 C 105.847656 188.816406 106.527344 185.367188 106.535156 181.78125 L 106.578125 133.421875 C 106.574219 133.308594 106.597656 133.195312 106.644531 133.089844 C 106.691406 132.984375 106.757812 132.894531 106.84375 132.816406 C 106.929688 132.738281 107.03125 132.683594 107.140625 132.648438 C 107.25 132.613281 107.363281 132.605469 107.476562 132.621094 C 109.886719 132.882812 112.304688 133.011719 114.726562 133.007812 C 117.160156 133.019531 119.582031 132.894531 122 132.632812 C 122.113281 132.621094 122.222656 132.632812 122.332031 132.667969 C 122.441406 132.703125 122.539062 132.757812 122.625 132.835938 C 122.710938 132.914062 122.777344 133.003906 122.824219 133.105469 C 122.871094 133.210938 122.898438 133.320312 122.898438 133.433594 Z M 122.871094 133.40625 " fill-opacity="1" fill-rule="nonzero"/></g></g></g></g><g clip-path="url(#9be5b28c93)"><g clip-path="url(#1795949dc6)"><g clip-path="url(#8f72658d20)"><g clip-path="url(#c6b01b1a81)"><path fill="#000000" d="M 167.847656 86.65625 L 156.441406 86.671875 C 156.117188 86.671875 155.804688 86.730469 155.507812 86.855469 C 155.207031 86.980469 154.941406 87.15625 154.710938 87.386719 C 154.484375 87.617188 154.304688 87.878906 154.183594 88.179688 C 154.058594 88.480469 153.996094 88.792969 153.996094 89.117188 C 152.683594 90.296875 151.203125 91.207031 149.554688 91.839844 C 147.90625 92.472656 146.199219 92.789062 144.433594 92.789062 L 144.042969 92.789062 C 142.464844 92.761719 140.972656 92.394531 139.566406 91.679688 C 138.246094 91.042969 136.851562 90.726562 135.382812 90.726562 L 121.414062 90.734375 C 118.476562 90.734375 115.546875 90.894531 112.625 91.210938 C 109.703125 91.53125 106.804688 92.003906 103.9375 92.636719 C 101.066406 93.269531 98.238281 94.054688 95.453125 94.992188 C 92.664062 95.929688 89.9375 97.011719 87.269531 98.246094 C 84.601562 99.476562 82.003906 100.851562 79.484375 102.363281 C 76.964844 103.875 74.53125 105.519531 72.1875 107.296875 C 69.847656 109.070312 67.605469 110.96875 65.46875 112.984375 C 63.328125 115.003906 61.304688 117.132812 59.398438 119.367188 C 59.277344 119.519531 59.214844 119.695312 59.214844 119.886719 C 59.21875 120.082031 59.28125 120.257812 59.40625 120.40625 C 59.53125 120.554688 59.6875 120.648438 59.878906 120.6875 C 60.070312 120.722656 60.253906 120.695312 60.425781 120.605469 C 63.5 118.839844 66.75 117.503906 70.175781 116.59375 C 73.605469 115.683594 77.089844 115.230469 80.632812 115.234375 L 94.085938 115.230469 C 94.371094 115.230469 94.652344 115.257812 94.933594 115.3125 C 95.214844 115.371094 95.488281 115.453125 95.75 115.5625 C 96.015625 115.671875 96.265625 115.804688 96.503906 115.964844 C 96.742188 116.121094 96.960938 116.304688 97.164062 116.503906 C 97.367188 116.707031 97.546875 116.925781 97.703125 117.164062 C 97.863281 117.402344 98 117.652344 98.109375 117.917969 C 98.21875 118.183594 98.300781 118.453125 98.355469 118.734375 C 98.410156 119.015625 98.441406 119.296875 98.441406 119.585938 L 98.4375 125.855469 C 98.4375 126.136719 98.523438 126.386719 98.695312 126.609375 C 98.867188 126.828125 99.085938 126.972656 99.359375 127.042969 C 104.402344 128.300781 109.523438 128.929688 114.722656 128.925781 C 119.921875 128.921875 125.042969 128.289062 130.089844 127.027344 C 130.359375 126.957031 130.582031 126.8125 130.753906 126.589844 C 130.925781 126.371094 131.011719 126.117188 131.011719 125.839844 L 131.015625 119.582031 C 131.015625 119.292969 131.042969 119.011719 131.097656 118.730469 C 131.152344 118.445312 131.238281 118.175781 131.347656 117.910156 C 131.457031 117.644531 131.589844 117.390625 131.75 117.152344 C 131.910156 116.914062 132.089844 116.695312 132.292969 116.492188 C 132.496094 116.289062 132.714844 116.105469 132.957031 115.949219 C 133.195312 115.789062 133.445312 115.652344 133.710938 115.542969 C 133.976562 115.433594 134.25 115.351562 134.53125 115.296875 C 134.8125 115.242188 135.097656 115.210938 135.382812 115.214844 C 136.960938 115.183594 138.449219 114.8125 139.855469 114.09375 C 141.179688 113.46875 142.574219 113.15625 144.039062 113.164062 L 144.421875 113.167969 C 146.1875 113.164062 147.890625 113.480469 149.539062 114.109375 C 151.183594 114.738281 152.664062 115.644531 153.976562 116.824219 C 153.972656 117.148438 154.035156 117.460938 154.160156 117.757812 C 154.28125 118.058594 154.460938 118.324219 154.6875 118.554688 C 154.917969 118.78125 155.183594 118.957031 155.480469 119.082031 C 155.78125 119.207031 156.09375 119.269531 156.417969 119.265625 L 167.832031 119.261719 C 168.15625 119.261719 168.464844 119.199219 168.765625 119.074219 C 169.066406 118.953125 169.332031 118.773438 169.5625 118.546875 C 169.789062 118.316406 169.96875 118.050781 170.089844 117.75 C 170.214844 117.453125 170.277344 117.140625 170.277344 116.816406 L 170.292969 89.101562 C 170.289062 88.777344 170.226562 88.464844 170.101562 88.167969 C 169.976562 87.871094 169.800781 87.605469 169.570312 87.378906 C 169.34375 87.148438 169.078125 86.972656 168.78125 86.847656 C 168.484375 86.722656 168.171875 86.660156 167.847656 86.65625 Z M 167.847656 86.65625 " fill-opacity="1" fill-rule="nonzero"/></g></g></g></g><g fill="#242424" fill-opacity="1"><g transform="translate(96.376486, 199.486761)"><g/></g></g><g fill="#242424" fill-opacity="1"><g transform="translate(107.332717, 199.486761)"><g/></g></g><g fill="#242424" fill-opacity="1"><g transform="translate(118.288948, 199.486761)"><g/></g></g><g fill="#000000" fill-opacity="1"><g transform="translate(129.247578, 199.486761)"><g><path d="M 15.59375 -9.484375 L 34.34375 -9.484375 L 34.34375 0 L 5.375 0 L 5.375 -47.046875 L 33.609375 -47.046875 L 33.609375 -37.640625 L 15.59375 -37.640625 L 15.59375 -28.359375 L 31.859375 -28.359375 L 31.859375 -19.15625 L 15.59375 -19.15625 Z M 15.59375 -9.484375 "/></g></g></g><g fill="#000000" fill-opacity="1"><g transform="translate(161.71378, 199.486761)"><g><path d="M 36.640625 0 L 33.34375 -8.9375 L 14.59375 -8.9375 L 11.359375 0 L 0.609375 0 L 19.015625 -47.046875 L 28.640625 -47.046875 L 47.65625 0 Z M 23.9375 -34.625 L 17.8125 -17.8125 L 30.109375 -17.8125 Z M 23.9375 -34.625 "/></g></g></g><g fill="#000000" fill-opacity="1"><g transform="translate(204.867746, 199.486761)"><g><path d="M 20.96875 0.9375 C 17.382812 0.9375 14.222656 0.289062 11.484375 -1 C 8.753906 -2.300781 6.613281 -4.160156 5.0625 -6.578125 C 3.519531 -9.003906 2.75 -11.898438 2.75 -15.265625 L 13.046875 -15.265625 C 13.046875 -12.972656 13.835938 -11.273438 15.421875 -10.171875 C 17.015625 -9.078125 18.84375 -8.53125 20.90625 -8.53125 C 22.207031 -8.53125 23.425781 -8.742188 24.5625 -9.171875 C 25.707031 -9.597656 26.648438 -10.222656 27.390625 -11.046875 C 28.128906 -11.878906 28.5 -12.878906 28.5 -14.046875 C 28.5 -15.253906 28.070312 -16.207031 27.21875 -16.90625 C 26.375 -17.601562 25.234375 -18.175781 23.796875 -18.625 C 22.359375 -19.070312 20.789062 -19.492188 19.09375 -19.890625 C 17.34375 -20.296875 15.546875 -20.789062 13.703125 -21.375 C 11.867188 -21.957031 10.164062 -22.726562 8.59375 -23.6875 C 7.03125 -24.65625 5.773438 -25.957031 4.828125 -27.59375 C 3.890625 -29.226562 3.421875 -31.300781 3.421875 -33.8125 C 3.421875 -38.332031 4.957031 -41.8125 8.03125 -44.25 C 11.101562 -46.695312 15.257812 -47.921875 20.5 -47.921875 C 25.875 -47.921875 30.039062 -46.566406 33 -43.859375 C 35.957031 -41.148438 37.4375 -37.460938 37.4375 -32.796875 L 27.359375 -32.796875 C 27.359375 -34.816406 26.640625 -36.304688 25.203125 -37.265625 C 23.773438 -38.234375 22.117188 -38.71875 20.234375 -38.71875 C 18.578125 -38.71875 17.050781 -38.359375 15.65625 -37.640625 C 14.269531 -36.921875 13.578125 -35.800781 13.578125 -34.28125 C 13.578125 -33.15625 13.988281 -32.269531 14.8125 -31.625 C 15.644531 -30.976562 16.742188 -30.441406 18.109375 -30.015625 C 19.484375 -29.585938 21 -29.171875 22.65625 -28.765625 C 24.445312 -28.316406 26.28125 -27.789062 28.15625 -27.1875 C 30.039062 -26.582031 31.789062 -25.765625 33.40625 -24.734375 C 35.019531 -23.703125 36.332031 -22.332031 37.34375 -20.625 C 38.351562 -18.925781 38.859375 -16.78125 38.859375 -14.1875 C 38.859375 -10.78125 38.039062 -7.957031 36.40625 -5.71875 C 34.769531 -3.476562 32.601562 -1.804688 29.90625 -0.703125 C 27.21875 0.390625 24.238281 0.9375 20.96875 0.9375 Z M 20.96875 0.9375 "/></g></g></g><g fill="#000000" fill-opacity="1"><g transform="translate(241.367066, 199.486761)"><g><path d="M 44.5625 -47.046875 L 28.03125 -19.015625 L 28.03125 0 L 17.546875 0 L 17.546875 -19.09375 L 1.140625 -47.046875 L 11.96875 -47.046875 L 22.859375 -28.234375 L 33.75 -47.046875 Z M 44.5625 -47.046875 "/></g></g></g><path stroke-linecap="butt" transform="matrix(0.749999, -0.000975185, 0.000975185, 0.749999, 133.794399, 254.619182)" fill="none" stroke-linejoin="miter" d="M 0.000697637 2.002551 L 271.605109 2.001537 " stroke="#000000" stroke-width="4" stroke-opacity="1" stroke-miterlimit="4"/><path stroke-linecap="butt" transform="matrix(0.776486, 0, 0, 0.776486, 130.238346, 206.880469)" fill="none" stroke-linejoin="miter" d="M 30.339914 41.999087 L 21.470835 26.409027 L 15.132185 26.409027 L 15.132185 41.999087 L 5.226788 41.999087 L 5.226788 -3.664343 L 23.684332 -3.664343 C 26.73292 -3.664343 29.449484 -3.010356 31.839055 -1.707411 C 34.228625 -0.399436 36.120158 1.386454 37.508624 3.645226 C 38.902121 5.90903 39.596354 8.514919 39.596354 11.467925 C 39.596354 14.430992 38.846784 17.072096 37.352673 19.396268 C 35.853533 21.72547 33.841263 23.496267 31.315864 24.718721 L 41.42752 41.999087 Z M 15.132185 5.4613 L 15.132185 17.278354 L 23.030344 17.278354 C 25.067767 17.278354 26.677583 16.73001 27.859791 15.623262 C 29.036969 14.506452 29.625558 13.102894 29.625558 11.402526 C 29.625558 9.661913 29.036969 8.238232 27.859791 7.136514 C 26.677583 6.019705 25.067767 5.4613 23.030344 5.4613 Z M 53.29488 32.792953 L 71.49586 32.792953 L 71.49586 41.999087 L 43.384452 41.999087 L 43.384452 -3.664343 L 70.781504 -3.664343 L 70.781504 5.4613 L 53.29488 5.4613 L 53.29488 14.461176 L 69.091197 14.461176 L 69.091197 23.410746 L 53.29488 23.410746 Z M 53.29488 32.792953 " stroke="#000000" stroke-width="2.446571" stroke-opacity="1" stroke-miterlimit="4"/><path stroke-linecap="butt" transform="matrix(0.776486, 0, 0, 0.776486, 185.138971, 206.880469)" fill="none" stroke-linejoin="miter" d="M 52.97513 46.888902 L 42.923843 46.888902 L 37.571206 40.75651 C 35.971451 41.460805 34.276114 41.999087 32.490225 42.381418 C 30.709366 42.773811 28.837955 42.970007 26.886054 42.970007 C 23.404827 42.970007 20.180165 42.376388 17.217098 41.189148 C 14.264092 39.986817 11.693417 38.316633 9.495013 36.168535 C 7.296608 34.015407 5.586179 31.495039 4.363725 28.602401 C 3.151333 25.704733 2.547652 22.555531 2.547652 19.159826 C 2.547652 15.774182 3.151333 12.635041 4.363725 9.747434 C 5.586179 6.849766 7.296608 4.324367 9.495013 2.1813 C 11.693417 0.023141 14.264092 -1.652074 17.217098 -2.854405 C 20.180165 -4.051705 23.404827 -4.650355 26.886054 -4.650355 C 30.357219 -4.650355 33.57182 -4.051705 36.519795 -2.854405 C 39.482862 -1.652074 42.053536 0.023141 44.231818 2.1813 C 46.4101 4.324367 48.100407 6.849766 49.312799 9.747434 C 50.535253 12.635041 51.143965 15.774182 51.143965 19.159826 C 51.143965 22.641052 50.500039 25.865715 49.217217 28.828782 C 47.944456 31.781788 46.193781 34.322278 43.975254 36.455284 Z M 26.886054 33.653198 C 28.319796 33.653198 29.688139 33.477125 30.996114 33.130008 L 21.915747 22.615899 L 31.967035 22.615899 L 37.510838 29.019947 C 38.64777 27.757248 39.538199 26.288291 40.187156 24.623138 C 40.846175 22.942893 41.173168 21.121789 41.173168 19.159826 C 41.173168 16.418108 40.554396 13.958109 39.311819 11.769765 C 38.069242 9.571361 36.368875 7.840809 34.210715 6.57811 C 32.067648 5.31541 29.627771 4.681545 26.886054 4.681545 C 24.189612 4.681545 21.749735 5.31541 19.576484 6.57811 C 17.398202 7.840809 15.677711 9.571361 14.415012 11.769765 C 13.152313 13.958109 12.518448 16.418108 12.518448 19.159826 C 12.518448 21.901543 13.152313 24.366574 14.415012 26.564978 C 15.677711 28.763383 17.398202 30.493935 19.576484 31.756634 C 21.749735 33.024364 24.189612 33.653198 26.886054 33.653198 Z M 72.479054 42.970007 C 68.872061 42.970007 65.647399 42.200314 62.815129 40.660928 C 59.98789 39.121541 57.74924 36.993566 56.089118 34.277002 C 54.444087 31.555407 53.624087 28.411236 53.624087 24.844488 L 53.624087 -3.664343 L 63.544577 -3.664343 L 63.544577 24.381666 C 63.544577 27.208905 64.379669 29.457616 66.044822 31.137861 C 67.725067 32.813076 69.868134 33.653198 72.479054 33.653198 C 75.13525 33.653198 77.29844 32.813076 78.963593 31.137861 C 80.638808 29.457616 81.478931 27.208905 81.478931 24.381666 L 81.478931 -3.664343 L 91.32396 -3.664343 L 91.32396 24.844488 C 91.32396 28.411236 90.50396 31.555407 88.868991 34.277002 C 87.244083 36.993566 85.010464 39.121541 82.163102 40.660928 C 79.320771 42.200314 76.091078 42.970007 72.479054 42.970007 Z M 106.265063 32.792953 L 124.466042 32.792953 L 124.466042 41.999087 L 96.354634 41.999087 L 96.354634 -3.664343 L 123.751686 -3.664343 L 123.751686 5.4613 L 106.265063 5.4613 L 106.265063 14.461176 L 122.06138 14.461176 L 122.06138 23.410746 L 106.265063 23.410746 Z M 142.994015 42.909639 C 139.512789 42.909639 136.444077 42.280805 133.787881 41.028167 C 131.146777 39.765468 129.069109 37.959456 127.559907 35.615161 C 126.065796 33.255775 125.316226 30.448659 125.316226 27.188782 L 135.302114 27.188782 C 135.302114 29.407309 136.071807 31.05234 137.611194 32.123873 C 139.15058 33.185346 140.926408 33.718597 142.928616 33.718597 C 144.196346 33.718597 145.378555 33.512339 146.485303 33.094794 C 147.597082 32.682278 148.512665 32.073567 149.22199 31.263628 C 149.946407 30.45872 150.303585 29.492831 150.303585 28.36596 C 150.303585 27.188782 149.89107 26.263138 149.061008 25.594058 C 148.235978 24.914917 147.124199 24.356512 145.735733 23.923874 C 144.342236 23.486206 142.817942 23.078721 141.16285 22.69639 C 139.472543 22.303997 137.736961 21.826083 135.956102 21.262648 C 134.170213 20.689151 132.515121 19.93455 130.985796 18.998844 C 129.466532 18.06817 128.249109 16.80547 127.338557 15.225839 C 126.422974 13.631115 125.970214 11.618845 125.970214 9.189029 C 125.970214 4.79222 127.454262 1.411607 130.427391 -0.95784 C 133.410581 -3.327288 137.445182 -4.509496 142.531193 -4.509496 C 147.758064 -4.509496 151.802726 -3.19146 154.67021 -0.560417 C 157.537694 2.065595 158.971437 5.637373 158.971437 10.15995 L 149.191806 10.15995 C 149.191806 8.208048 148.492542 6.764245 147.104076 5.828539 C 145.710579 4.892834 144.105794 4.424981 142.279659 4.424981 C 140.664813 4.424981 139.180764 4.777128 137.832543 5.476392 C 136.484323 6.165594 135.810212 7.25222 135.810212 8.726207 C 135.810212 9.807802 136.212666 10.668048 137.022605 11.306943 C 137.827513 11.935778 138.894016 12.453937 140.222114 12.866452 C 141.550212 13.283998 143.014138 13.686452 144.618923 14.078845 C 146.359536 14.516514 148.145426 15.024612 149.97156 15.60817 C 151.797695 16.191728 153.493032 16.986575 155.052541 17.99774 C 156.622112 18.993814 157.899903 20.321912 158.875854 21.977003 C 159.851805 23.627065 160.33978 25.709764 160.33978 28.240193 C 160.33978 31.540315 159.544934 34.282033 157.95021 36.455284 C 156.370578 38.633566 154.272787 40.253443 151.656836 41.314915 C 149.055978 42.376388 146.168371 42.909639 142.994015 42.909639 Z M 194.789837 -3.664343 L 194.789837 5.526699 L 182.062231 5.526699 L 182.062231 41.999087 L 172.156834 41.999087 L 172.156834 5.526699 L 159.494627 5.526699 L 159.494627 -3.664343 Z M 194.789837 -3.664343 " stroke="#000000" stroke-width="2.446571" stroke-opacity="1" stroke-miterlimit="4"/><path fill="#ffffff" d="M 148.8125 249.9375 L 318.714844 249.9375 L 318.714844 261.769531 L 148.8125 261.769531 L 148.8125 249.9375 " fill-opacity="1" fill-rule="nonzero"/><g fill="#242424" fill-opacity="1"><g transform="translate(150.144166, 258.854337)"><g><path d="M 3.375 0.09375 C 2.800781 0.09375 2.300781 -0.00390625 1.875 -0.203125 C 1.445312 -0.410156 1.113281 -0.695312 0.875 -1.0625 C 0.632812 -1.4375 0.515625 -1.878906 0.515625 -2.390625 L 1.5 -2.390625 C 1.5 -1.910156 1.675781 -1.535156 2.03125 -1.265625 C 2.382812 -0.992188 2.828125 -0.859375 3.359375 -0.859375 C 3.679688 -0.859375 3.972656 -0.910156 4.234375 -1.015625 C 4.503906 -1.117188 4.71875 -1.269531 4.875 -1.46875 C 5.03125 -1.675781 5.109375 -1.921875 5.109375 -2.203125 C 5.109375 -2.503906 5.019531 -2.738281 4.84375 -2.90625 C 4.664062 -3.070312 4.425781 -3.203125 4.125 -3.296875 C 3.832031 -3.390625 3.519531 -3.472656 3.1875 -3.546875 C 2.882812 -3.617188 2.582031 -3.695312 2.28125 -3.78125 C 1.988281 -3.875 1.71875 -3.992188 1.46875 -4.140625 C 1.21875 -4.296875 1.019531 -4.5 0.875 -4.75 C 0.726562 -5 0.65625 -5.316406 0.65625 -5.703125 C 0.65625 -6.378906 0.894531 -6.90625 1.375 -7.28125 C 1.851562 -7.664062 2.492188 -7.859375 3.296875 -7.859375 C 4.097656 -7.859375 4.726562 -7.648438 5.1875 -7.234375 C 5.65625 -6.828125 5.890625 -6.269531 5.890625 -5.5625 L 4.921875 -5.5625 C 4.921875 -6 4.765625 -6.335938 4.453125 -6.578125 C 4.148438 -6.816406 3.757812 -6.9375 3.28125 -6.9375 C 2.8125 -6.9375 2.414062 -6.828125 2.09375 -6.609375 C 1.78125 -6.398438 1.625 -6.113281 1.625 -5.75 C 1.625 -5.457031 1.710938 -5.234375 1.890625 -5.078125 C 2.066406 -4.921875 2.296875 -4.796875 2.578125 -4.703125 C 2.867188 -4.609375 3.179688 -4.523438 3.515625 -4.453125 C 3.816406 -4.378906 4.117188 -4.289062 4.421875 -4.1875 C 4.734375 -4.09375 5.015625 -3.96875 5.265625 -3.8125 C 5.523438 -3.65625 5.726562 -3.445312 5.875 -3.1875 C 6.03125 -2.9375 6.109375 -2.609375 6.109375 -2.203125 C 6.109375 -1.710938 5.988281 -1.296875 5.75 -0.953125 C 5.507812 -0.609375 5.179688 -0.347656 4.765625 -0.171875 C 4.359375 0.00390625 3.894531 0.09375 3.375 0.09375 Z M 3.375 0.09375 "/></g></g></g><g fill="#242424" fill-opacity="1"><g transform="translate(156.762467, 258.854337)"><g><path d="M 2.03125 -0.9375 L 5.578125 -0.9375 L 5.578125 0 L 1.0625 0 L 1.0625 -7.765625 L 5.453125 -7.765625 L 5.453125 -6.84375 L 2.03125 -6.84375 L 2.03125 -4.4375 L 5.171875 -4.4375 L 5.171875 -3.53125 L 2.03125 -3.53125 Z M 2.03125 -0.9375 "/></g></g></g><g fill="#242424" fill-opacity="1"><g transform="translate(162.892986, 258.854337)"><g><path d="M 4.03125 0.140625 C 3.445312 0.140625 2.921875 0.0078125 2.453125 -0.25 C 1.992188 -0.507812 1.628906 -0.867188 1.359375 -1.328125 C 1.097656 -1.785156 0.96875 -2.304688 0.96875 -2.890625 L 0.96875 -7.765625 L 1.953125 -7.765625 L 1.953125 -2.96875 C 1.953125 -2.539062 2.039062 -2.164062 2.21875 -1.84375 C 2.394531 -1.519531 2.640625 -1.269531 2.953125 -1.09375 C 3.265625 -0.914062 3.625 -0.828125 4.03125 -0.828125 C 4.425781 -0.828125 4.78125 -0.914062 5.09375 -1.09375 C 5.40625 -1.269531 5.644531 -1.519531 5.8125 -1.84375 C 5.988281 -2.164062 6.078125 -2.539062 6.078125 -2.96875 L 6.078125 -7.765625 L 7.0625 -7.765625 L 7.0625 -2.890625 C 7.0625 -2.304688 6.925781 -1.785156 6.65625 -1.328125 C 6.394531 -0.867188 6.035156 -0.507812 5.578125 -0.25 C 5.117188 0.0078125 4.601562 0.140625 4.03125 0.140625 Z M 4.03125 0.140625 "/></g></g></g><g fill="#242424" fill-opacity="1"><g transform="translate(170.919196, 258.854337)"><g/></g></g><g fill="#242424" fill-opacity="1"><g transform="translate(173.823707, 258.854337)"><g><path d="M 4.515625 0.125 C 3.941406 0.125 3.410156 0.0234375 2.921875 -0.171875 C 2.441406 -0.367188 2.019531 -0.644531 1.65625 -1 C 1.300781 -1.363281 1.023438 -1.785156 0.828125 -2.265625 C 0.628906 -2.753906 0.53125 -3.296875 0.53125 -3.890625 C 0.53125 -4.472656 0.628906 -5.003906 0.828125 -5.484375 C 1.023438 -5.972656 1.300781 -6.394531 1.65625 -6.75 C 2.019531 -7.113281 2.441406 -7.394531 2.921875 -7.59375 C 3.410156 -7.789062 3.941406 -7.890625 4.515625 -7.890625 C 5.109375 -7.890625 5.65625 -7.773438 6.15625 -7.546875 C 6.65625 -7.328125 7.082031 -7.007812 7.4375 -6.59375 C 7.789062 -6.1875 8.039062 -5.703125 8.1875 -5.140625 L 7.203125 -5.140625 C 6.992188 -5.703125 6.648438 -6.140625 6.171875 -6.453125 C 5.703125 -6.773438 5.148438 -6.9375 4.515625 -6.9375 C 3.941406 -6.9375 3.425781 -6.804688 2.96875 -6.546875 C 2.519531 -6.285156 2.164062 -5.921875 1.90625 -5.453125 C 1.65625 -4.992188 1.53125 -4.472656 1.53125 -3.890625 C 1.53125 -3.285156 1.65625 -2.753906 1.90625 -2.296875 C 2.164062 -1.835938 2.519531 -1.476562 2.96875 -1.21875 C 3.425781 -0.957031 3.941406 -0.828125 4.515625 -0.828125 C 5.160156 -0.828125 5.722656 -0.992188 6.203125 -1.328125 C 6.691406 -1.671875 7.035156 -2.140625 7.234375 -2.734375 L 8.234375 -2.734375 C 8.085938 -2.148438 7.832031 -1.644531 7.46875 -1.21875 C 7.113281 -0.789062 6.679688 -0.457031 6.171875 -0.21875 C 5.671875 0.0078125 5.117188 0.125 4.515625 0.125 Z M 4.515625 0.125 "/></g></g></g><g fill="#242424" fill-opacity="1"><g transform="translate(182.42639, 258.854337)"><g><path d="M 6.0625 -7.765625 L 7.015625 -7.765625 L 7.015625 0 L 6.0625 0 L 6.0625 -3.53125 L 2.03125 -3.53125 L 2.03125 0 L 1.0625 0 L 1.0625 -7.765625 L 2.03125 -7.765625 L 2.03125 -4.453125 L 6.0625 -4.453125 Z M 6.0625 -7.765625 "/></g></g></g><g fill="#242424" fill-opacity="1"><g transform="translate(190.508036, 258.854337)"><g><path d="M 6.484375 0 L 5.71875 -1.859375 L 1.984375 -1.859375 L 1.21875 0 L 0.1875 0 L 3.359375 -7.765625 L 4.265625 -7.765625 L 7.546875 0 Z M 3.84375 -6.421875 L 2.359375 -2.75 L 5.34375 -2.75 Z M 3.84375 -6.421875 "/></g></g></g><g fill="#242424" fill-opacity="1"><g transform="translate(198.234926, 258.854337)"><g><path d="M 10.125 0 L 9.125 0 L 8.125 -6.0625 L 5.4375 -0.203125 L 5.1875 -0.203125 L 2.5 -6.0625 L 1.484375 0 L 0.484375 0 L 1.796875 -7.765625 L 2.734375 -7.765625 L 5.296875 -2.0625 L 7.875 -7.765625 L 8.828125 -7.765625 Z M 10.125 0 "/></g></g></g><g fill="#242424" fill-opacity="1"><g transform="translate(208.844159, 258.854337)"><g><path d="M 6.484375 0 L 5.71875 -1.859375 L 1.984375 -1.859375 L 1.21875 0 L 0.1875 0 L 3.359375 -7.765625 L 4.265625 -7.765625 L 7.546875 0 Z M 3.84375 -6.421875 L 2.359375 -2.75 L 5.34375 -2.75 Z M 3.84375 -6.421875 "/></g></g></g><g fill="#242424" fill-opacity="1"><g transform="translate(216.571049, 258.854337)"><g><path d="M 3.65625 -7.765625 C 4.21875 -7.765625 4.738281 -7.664062 5.21875 -7.46875 C 5.707031 -7.28125 6.125 -7.007812 6.46875 -6.65625 C 6.820312 -6.3125 7.097656 -5.898438 7.296875 -5.421875 C 7.492188 -4.953125 7.59375 -4.441406 7.59375 -3.890625 C 7.59375 -3.328125 7.492188 -2.804688 7.296875 -2.328125 C 7.097656 -1.859375 6.820312 -1.445312 6.46875 -1.09375 C 6.125 -0.75 5.707031 -0.476562 5.21875 -0.28125 C 4.738281 -0.09375 4.21875 0 3.65625 0 L 1.0625 0 L 1.0625 -7.765625 Z M 3.609375 -0.90625 C 4.203125 -0.90625 4.71875 -1.035156 5.15625 -1.296875 C 5.601562 -1.554688 5.953125 -1.910156 6.203125 -2.359375 C 6.460938 -2.804688 6.59375 -3.316406 6.59375 -3.890625 C 6.59375 -4.460938 6.460938 -4.96875 6.203125 -5.40625 C 5.953125 -5.851562 5.601562 -6.207031 5.15625 -6.46875 C 4.71875 -6.726562 4.203125 -6.859375 3.609375 -6.859375 L 2.03125 -6.859375 L 2.03125 -0.90625 Z M 3.609375 -0.90625 "/></g></g></g><g fill="#242424" fill-opacity="1"><g transform="translate(224.697029, 258.854337)"><g><path d="M 4.59375 0.140625 C 4.007812 0.140625 3.46875 0.0351562 2.96875 -0.171875 C 2.476562 -0.378906 2.046875 -0.660156 1.671875 -1.015625 C 1.304688 -1.378906 1.023438 -1.800781 0.828125 -2.28125 C 0.628906 -2.769531 0.53125 -3.304688 0.53125 -3.890625 C 0.53125 -4.453125 0.628906 -4.976562 0.828125 -5.46875 C 1.023438 -5.957031 1.304688 -6.378906 1.671875 -6.734375 C 2.046875 -7.097656 2.476562 -7.382812 2.96875 -7.59375 C 3.46875 -7.800781 4.007812 -7.90625 4.59375 -7.90625 C 5.1875 -7.90625 5.726562 -7.800781 6.21875 -7.59375 C 6.71875 -7.382812 7.144531 -7.097656 7.5 -6.734375 C 7.863281 -6.378906 8.148438 -5.957031 8.359375 -5.46875 C 8.566406 -4.988281 8.671875 -4.460938 8.671875 -3.890625 C 8.671875 -3.304688 8.566406 -2.769531 8.359375 -2.28125 C 8.148438 -1.789062 7.863281 -1.367188 7.5 -1.015625 C 7.144531 -0.660156 6.71875 -0.378906 6.21875 -0.171875 C 5.726562 0.0351562 5.1875 0.140625 4.59375 0.140625 Z M 4.59375 -0.828125 C 5.1875 -0.828125 5.710938 -0.957031 6.171875 -1.21875 C 6.628906 -1.488281 6.992188 -1.851562 7.265625 -2.3125 C 7.535156 -2.769531 7.671875 -3.296875 7.671875 -3.890625 C 7.671875 -4.472656 7.535156 -4.992188 7.265625 -5.453125 C 6.992188 -5.910156 6.628906 -6.269531 6.171875 -6.53125 C 5.710938 -6.800781 5.1875 -6.9375 4.59375 -6.9375 C 4.007812 -6.9375 3.484375 -6.800781 3.015625 -6.53125 C 2.554688 -6.269531 2.191406 -5.90625 1.921875 -5.4375 C 1.660156 -4.976562 1.53125 -4.460938 1.53125 -3.890625 C 1.53125 -3.296875 1.660156 -2.769531 1.921875 -2.3125 C 2.191406 -1.851562 2.554688 -1.488281 3.015625 -1.21875 C 3.484375 -0.957031 4.007812 -0.828125 4.59375 -0.828125 Z M 4.59375 -0.828125 "/></g></g></g><g fill="#242424" fill-opacity="1"><g transform="translate(233.887263, 258.854337)"><g><path d="M 0.828125 1.46875 L 0.828125 0.9375 C 1.023438 0.863281 1.164062 0.75 1.25 0.59375 C 1.34375 0.4375 1.390625 0.238281 1.390625 0 L 0.765625 0 L 0.765625 -1.171875 L 1.90625 -1.171875 L 1.90625 -0.09375 C 1.90625 0.351562 1.804688 0.703125 1.609375 0.953125 C 1.421875 1.203125 1.160156 1.375 0.828125 1.46875 Z M 0.828125 1.46875 "/></g></g></g><g fill="#242424" fill-opacity="1"><g transform="translate(236.558967, 258.854337)"><g/></g></g><g fill="#242424" fill-opacity="1"><g transform="translate(239.463477, 258.854337)"><g><path d="M 6.296875 -7.765625 L 7.25 -7.765625 L 7.25 0 L 6.4375 0 L 2.015625 -6.0625 L 2.015625 0 L 1.0625 0 L 1.0625 -7.765625 L 1.9375 -7.765625 L 6.296875 -1.78125 Z M 6.296875 -7.765625 "/></g></g></g><g fill="#242424" fill-opacity="1"><g transform="translate(247.76684, 258.854337)"><g><path d="M 4.59375 0.140625 C 4.007812 0.140625 3.46875 0.0351562 2.96875 -0.171875 C 2.476562 -0.378906 2.046875 -0.660156 1.671875 -1.015625 C 1.304688 -1.378906 1.023438 -1.800781 0.828125 -2.28125 C 0.628906 -2.769531 0.53125 -3.304688 0.53125 -3.890625 C 0.53125 -4.453125 0.628906 -4.976562 0.828125 -5.46875 C 1.023438 -5.957031 1.304688 -6.378906 1.671875 -6.734375 C 2.046875 -7.097656 2.476562 -7.382812 2.96875 -7.59375 C 3.46875 -7.800781 4.007812 -7.90625 4.59375 -7.90625 C 5.1875 -7.90625 5.726562 -7.800781 6.21875 -7.59375 C 6.71875 -7.382812 7.144531 -7.097656 7.5 -6.734375 C 7.863281 -6.378906 8.148438 -5.957031 8.359375 -5.46875 C 8.566406 -4.988281 8.671875 -4.460938 8.671875 -3.890625 C 8.671875 -3.304688 8.566406 -2.769531 8.359375 -2.28125 C 8.148438 -1.789062 7.863281 -1.367188 7.5 -1.015625 C 7.144531 -0.660156 6.71875 -0.378906 6.21875 -0.171875 C 5.726562 0.0351562 5.1875 0.140625 4.59375 0.140625 Z M 4.59375 -0.828125 C 5.1875 -0.828125 5.710938 -0.957031 6.171875 -1.21875 C 6.628906 -1.488281 6.992188 -1.851562 7.265625 -2.3125 C 7.535156 -2.769531 7.671875 -3.296875 7.671875 -3.890625 C 7.671875 -4.472656 7.535156 -4.992188 7.265625 -5.453125 C 6.992188 -5.910156 6.628906 -6.269531 6.171875 -6.53125 C 5.710938 -6.800781 5.1875 -6.9375 4.59375 -6.9375 C 4.007812 -6.9375 3.484375 -6.800781 3.015625 -6.53125 C 2.554688 -6.269531 2.191406 -5.90625 1.921875 -5.4375 C 1.660156 -4.976562 1.53125 -4.460938 1.53125 -3.890625 C 1.53125 -3.296875 1.660156 -2.769531 1.921875 -2.3125 C 2.191406 -1.851562 2.554688 -1.488281 3.015625 -1.21875 C 3.484375 -0.957031 4.007812 -0.828125 4.59375 -0.828125 Z M 4.59375 -0.828125 "/></g></g></g><g fill="#242424" fill-opacity="1"><g transform="translate(256.957075, 258.854337)"><g><path d="M 3.375 0.09375 C 2.800781 0.09375 2.300781 -0.00390625 1.875 -0.203125 C 1.445312 -0.410156 1.113281 -0.695312 0.875 -1.0625 C 0.632812 -1.4375 0.515625 -1.878906 0.515625 -2.390625 L 1.5 -2.390625 C 1.5 -1.910156 1.675781 -1.535156 2.03125 -1.265625 C 2.382812 -0.992188 2.828125 -0.859375 3.359375 -0.859375 C 3.679688 -0.859375 3.972656 -0.910156 4.234375 -1.015625 C 4.503906 -1.117188 4.71875 -1.269531 4.875 -1.46875 C 5.03125 -1.675781 5.109375 -1.921875 5.109375 -2.203125 C 5.109375 -2.503906 5.019531 -2.738281 4.84375 -2.90625 C 4.664062 -3.070312 4.425781 -3.203125 4.125 -3.296875 C 3.832031 -3.390625 3.519531 -3.472656 3.1875 -3.546875 C 2.882812 -3.617188 2.582031 -3.695312 2.28125 -3.78125 C 1.988281 -3.875 1.71875 -3.992188 1.46875 -4.140625 C 1.21875 -4.296875 1.019531 -4.5 0.875 -4.75 C 0.726562 -5 0.65625 -5.316406 0.65625 -5.703125 C 0.65625 -6.378906 0.894531 -6.90625 1.375 -7.28125 C 1.851562 -7.664062 2.492188 -7.859375 3.296875 -7.859375 C 4.097656 -7.859375 4.726562 -7.648438 5.1875 -7.234375 C 5.65625 -6.828125 5.890625 -6.269531 5.890625 -5.5625 L 4.921875 -5.5625 C 4.921875 -6 4.765625 -6.335938 4.453125 -6.578125 C 4.148438 -6.816406 3.757812 -6.9375 3.28125 -6.9375 C 2.8125 -6.9375 2.414062 -6.828125 2.09375 -6.609375 C 1.78125 -6.398438 1.625 -6.113281 1.625 -5.75 C 1.625 -5.457031 1.710938 -5.234375 1.890625 -5.078125 C 2.066406 -4.921875 2.296875 -4.796875 2.578125 -4.703125 C 2.867188 -4.609375 3.179688 -4.523438 3.515625 -4.453125 C 3.816406 -4.378906 4.117188 -4.289062 4.421875 -4.1875 C 4.734375 -4.09375 5.015625 -3.96875 5.265625 -3.8125 C 5.523438 -3.65625 5.726562 -3.445312 5.875 -3.1875 C 6.03125 -2.9375 6.109375 -2.609375 6.109375 -2.203125 C 6.109375 -1.710938 5.988281 -1.296875 5.75 -0.953125 C 5.507812 -0.609375 5.179688 -0.347656 4.765625 -0.171875 C 4.359375 0.00390625 3.894531 0.09375 3.375 0.09375 Z M 3.375 0.09375 "/></g></g></g><g fill="#242424" fill-opacity="1"><g transform="translate(263.575376, 258.854337)"><g><path d="M 3.375 0.09375 C 2.800781 0.09375 2.300781 -0.00390625 1.875 -0.203125 C 1.445312 -0.410156 1.113281 -0.695312 0.875 -1.0625 C 0.632812 -1.4375 0.515625 -1.878906 0.515625 -2.390625 L 1.5 -2.390625 C 1.5 -1.910156 1.675781 -1.535156 2.03125 -1.265625 C 2.382812 -0.992188 2.828125 -0.859375 3.359375 -0.859375 C 3.679688 -0.859375 3.972656 -0.910156 4.234375 -1.015625 C 4.503906 -1.117188 4.71875 -1.269531 4.875 -1.46875 C 5.03125 -1.675781 5.109375 -1.921875 5.109375 -2.203125 C 5.109375 -2.503906 5.019531 -2.738281 4.84375 -2.90625 C 4.664062 -3.070312 4.425781 -3.203125 4.125 -3.296875 C 3.832031 -3.390625 3.519531 -3.472656 3.1875 -3.546875 C 2.882812 -3.617188 2.582031 -3.695312 2.28125 -3.78125 C 1.988281 -3.875 1.71875 -3.992188 1.46875 -4.140625 C 1.21875 -4.296875 1.019531 -4.5 0.875 -4.75 C 0.726562 -5 0.65625 -5.316406 0.65625 -5.703125 C 0.65625 -6.378906 0.894531 -6.90625 1.375 -7.28125 C 1.851562 -7.664062 2.492188 -7.859375 3.296875 -7.859375 C 4.097656 -7.859375 4.726562 -7.648438 5.1875 -7.234375 C 5.65625 -6.828125 5.890625 -6.269531 5.890625 -5.5625 L 4.921875 -5.5625 C 4.921875 -6 4.765625 -6.335938 4.453125 -6.578125 C 4.148438 -6.816406 3.757812 -6.9375 3.28125 -6.9375 C 2.8125 -6.9375 2.414062 -6.828125 2.09375 -6.609375 C 1.78125 -6.398438 1.625 -6.113281 1.625 -5.75 C 1.625 -5.457031 1.710938 -5.234375 1.890625 -5.078125 C 2.066406 -4.921875 2.296875 -4.796875 2.578125 -4.703125 C 2.867188 -4.609375 3.179688 -4.523438 3.515625 -4.453125 C 3.816406 -4.378906 4.117188 -4.289062 4.421875 -4.1875 C 4.734375 -4.09375 5.015625 -3.96875 5.265625 -3.8125 C 5.523438 -3.65625 5.726562 -3.445312 5.875 -3.1875 C 6.03125 -2.9375 6.109375 -2.609375 6.109375 -2.203125 C 6.109375 -1.710938 5.988281 -1.296875 5.75 -0.953125 C 5.507812 -0.609375 5.179688 -0.347656 4.765625 -0.171875 C 4.359375 0.00390625 3.894531 0.09375 3.375 0.09375 Z M 3.375 0.09375 "/></g></g></g><g fill="#242424" fill-opacity="1"><g transform="translate(270.193677, 258.854337)"><g><path d="M 4.59375 0.140625 C 4.007812 0.140625 3.46875 0.0351562 2.96875 -0.171875 C 2.476562 -0.378906 2.046875 -0.660156 1.671875 -1.015625 C 1.304688 -1.378906 1.023438 -1.800781 0.828125 -2.28125 C 0.628906 -2.769531 0.53125 -3.304688 0.53125 -3.890625 C 0.53125 -4.453125 0.628906 -4.976562 0.828125 -5.46875 C 1.023438 -5.957031 1.304688 -6.378906 1.671875 -6.734375 C 2.046875 -7.097656 2.476562 -7.382812 2.96875 -7.59375 C 3.46875 -7.800781 4.007812 -7.90625 4.59375 -7.90625 C 5.1875 -7.90625 5.726562 -7.800781 6.21875 -7.59375 C 6.71875 -7.382812 7.144531 -7.097656 7.5 -6.734375 C 7.863281 -6.378906 8.148438 -5.957031 8.359375 -5.46875 C 8.566406 -4.988281 8.671875 -4.460938 8.671875 -3.890625 C 8.671875 -3.304688 8.566406 -2.769531 8.359375 -2.28125 C 8.148438 -1.789062 7.863281 -1.367188 7.5 -1.015625 C 7.144531 -0.660156 6.71875 -0.378906 6.21875 -0.171875 C 5.726562 0.0351562 5.1875 0.140625 4.59375 0.140625 Z M 4.59375 -0.828125 C 5.1875 -0.828125 5.710938 -0.957031 6.171875 -1.21875 C 6.628906 -1.488281 6.992188 -1.851562 7.265625 -2.3125 C 7.535156 -2.769531 7.671875 -3.296875 7.671875 -3.890625 C 7.671875 -4.472656 7.535156 -4.992188 7.265625 -5.453125 C 6.992188 -5.910156 6.628906 -6.269531 6.171875 -6.53125 C 5.710938 -6.800781 5.1875 -6.9375 4.59375 -6.9375 C 4.007812 -6.9375 3.484375 -6.800781 3.015625 -6.53125 C 2.554688 -6.269531 2.191406 -5.90625 1.921875 -5.4375 C 1.660156 -4.976562 1.53125 -4.460938 1.53125 -3.890625 C 1.53125 -3.296875 1.660156 -2.769531 1.921875 -2.3125 C 2.191406 -1.851562 2.554688 -1.488281 3.015625 -1.21875 C 3.484375 -0.957031 4.007812 -0.828125 4.59375 -0.828125 Z M 4.59375 -0.828125 "/></g></g></g><g fill="#242424" fill-opacity="1"><g transform="translate(279.383911, 258.854337)"><g/></g></g><g fill="#242424" fill-opacity="1"><g transform="translate(282.288422, 258.854337)"><g><path d="M 3.65625 -7.765625 C 4.21875 -7.765625 4.738281 -7.664062 5.21875 -7.46875 C 5.707031 -7.28125 6.125 -7.007812 6.46875 -6.65625 C 6.820312 -6.3125 7.097656 -5.898438 7.296875 -5.421875 C 7.492188 -4.953125 7.59375 -4.441406 7.59375 -3.890625 C 7.59375 -3.328125 7.492188 -2.804688 7.296875 -2.328125 C 7.097656 -1.859375 6.820312 -1.445312 6.46875 -1.09375 C 6.125 -0.75 5.707031 -0.476562 5.21875 -0.28125 C 4.738281 -0.09375 4.21875 0 3.65625 0 L 1.0625 0 L 1.0625 -7.765625 Z M 3.609375 -0.90625 C 4.203125 -0.90625 4.71875 -1.035156 5.15625 -1.296875 C 5.601562 -1.554688 5.953125 -1.910156 6.203125 -2.359375 C 6.460938 -2.804688 6.59375 -3.316406 6.59375 -3.890625 C 6.59375 -4.460938 6.460938 -4.96875 6.203125 -5.40625 C 5.953125 -5.851562 5.601562 -6.207031 5.15625 -6.46875 C 4.71875 -6.726562 4.203125 -6.859375 3.609375 -6.859375 L 2.03125 -6.859375 L 2.03125 -0.90625 Z M 3.609375 -0.90625 "/></g></g></g><g fill="#242424" fill-opacity="1"><g transform="translate(290.414401, 258.854337)"><g><path d="M 2.03125 -0.9375 L 5.578125 -0.9375 L 5.578125 0 L 1.0625 0 L 1.0625 -7.765625 L 5.453125 -7.765625 L 5.453125 -6.84375 L 2.03125 -6.84375 L 2.03125 -4.4375 L 5.171875 -4.4375 L 5.171875 -3.53125 L 2.03125 -3.53125 Z M 2.03125 -0.9375 "/></g></g></g><g fill="#242424" fill-opacity="1"><g transform="translate(296.544921, 258.854337)"><g><path d="M 6.265625 -7.765625 L 7.328125 -7.765625 L 4.234375 0 L 3.34375 0 L 0.203125 -7.765625 L 1.28125 -7.765625 L 3.796875 -1.46875 Z M 6.265625 -7.765625 "/></g></g></g><g fill="#242424" fill-opacity="1"><g transform="translate(304.105528, 258.854337)"><g><path d="M 2.03125 -0.9375 L 5.578125 -0.9375 L 5.578125 0 L 1.0625 0 L 1.0625 -7.765625 L 5.453125 -7.765625 L 5.453125 -6.84375 L 2.03125 -6.84375 L 2.03125 -4.4375 L 5.171875 -4.4375 L 5.171875 -3.53125 L 2.03125 -3.53125 Z M 2.03125 -0.9375 "/></g></g></g><g fill="#242424" fill-opacity="1"><g transform="translate(310.236048, 258.854337)"><g><path d="M 5.578125 0 L 3.8125 -3.046875 L 2.03125 -3.046875 L 2.03125 0 L 1.0625 0 L 1.0625 -7.765625 L 4 -7.765625 C 4.488281 -7.765625 4.921875 -7.660156 5.296875 -7.453125 C 5.679688 -7.253906 5.984375 -6.972656 6.203125 -6.609375 C 6.421875 -6.253906 6.53125 -5.847656 6.53125 -5.390625 C 6.53125 -4.847656 6.375 -4.375 6.0625 -3.96875 C 5.75 -3.570312 5.335938 -3.300781 4.828125 -3.15625 L 6.671875 0 Z M 2.03125 -6.84375 L 2.03125 -3.953125 L 3.953125 -3.953125 C 4.429688 -3.953125 4.816406 -4.085938 5.109375 -4.359375 C 5.398438 -4.628906 5.546875 -4.976562 5.546875 -5.40625 C 5.546875 -5.820312 5.398438 -6.164062 5.109375 -6.4375 C 4.816406 -6.707031 4.429688 -6.84375 3.953125 -6.84375 Z M 2.03125 -6.84375 "/></g></g></g></svg>